HIERARCHY
ROOT Hips
{
	OFFSET 0.000000 88.474243 0.000000
	CHANNELS 6 Xposition Yposition Zposition Zrotation Yrotation Xrotation 
	JOINT Hips_Spine
	{
		OFFSET 0.000000 0.000000 0.000000
		CHANNELS 3 Zrotation Yrotation Xrotation
		JOINT Spine
		{
			OFFSET 0.005100 8.711998 -0.691000
			CHANNELS 3 Zrotation Yrotation Xrotation
			JOINT Spine1
			{
				OFFSET -0.009200 8.660301 -1.275000
				CHANNELS 3 Zrotation Yrotation Xrotation
				JOINT Spine2
				{
					OFFSET 0.006300 9.852501 -1.857000
					CHANNELS 3 Zrotation Yrotation Xrotation
					JOINT Spine2_Neck
					{
						OFFSET 0.000000 0.000000 0.000000
						CHANNELS 3 Zrotation Yrotation Xrotation
						JOINT Neck
						{
							OFFSET 0.016300 11.420799 -0.263300
							CHANNELS 3 Zrotation Yrotation Xrotation
							End Site #name: Head
							{
								OFFSET -0.019200 9.262405 2.362500
							}
						}
					}
					JOINT Spine2_LeftShoulder
					{
						OFFSET 0.000000 0.000000 0.000000
						CHANNELS 3 Zrotation Yrotation Xrotation
						JOINT LeftShoulder
						{
							OFFSET 5.616900 6.732201 -0.345700
							CHANNELS 3 Zrotation Yrotation Xrotation
							JOINT LeftArm
							{
								OFFSET 10.664888 -0.183372 -2.440700
								CHANNELS 3 Zrotation Yrotation Xrotation
								JOINT LeftForeArm
								{
									OFFSET 27.459126 0.000000 0.000000
									CHANNELS 3 Zrotation Yrotation Xrotation
									End Site #name: LeftHand
									{
										OFFSET 21.306858 0.000000 0.000000
									}
								}
							}
						}
					}
					JOINT Spine2_RightShoulder
					{
						OFFSET 0.000000 0.000000 0.000000
						CHANNELS 3 Zrotation Yrotation Xrotation
						JOINT RightShoulder
						{
							OFFSET -5.580300 6.737503 -0.344400
							CHANNELS 3 Zrotation Yrotation Xrotation
							JOINT RightArm
							{
								OFFSET -10.679335 -0.188484 -2.383900
								CHANNELS 3 Zrotation Yrotation Xrotation
								JOINT RightForeArm
								{
									OFFSET -27.503529 0.000000 0.000000
									CHANNELS 3 Zrotation Yrotation Xrotation
									End Site #name: RightHand
									{
										OFFSET -21.306808 0.000000 0.000000
									}
								}
							}
						}
					}
				}
			}
		}
	}
	JOINT Hips_LeftUpLeg
	{
		OFFSET 0.000000 0.000000 0.000000
		CHANNELS 3 Zrotation Yrotation Xrotation
		JOINT LeftUpLeg
		{
			OFFSET 6.857700 -6.739601 0.312100
			CHANNELS 3 Zrotation Yrotation Xrotation
			JOINT LeftLeg
			{
				OFFSET -0.367590 -34.731552 -4.572400
				CHANNELS 3 Zrotation Yrotation Xrotation
				End Site #name: LeftFoot
				{
					OFFSET 0.367590 -34.656704 -6.067400
				}
			}
		}
	}
	JOINT Hips_RightUpLeg
	{
		OFFSET 0.000000 0.000000 0.000000
		CHANNELS 3 Zrotation Yrotation Xrotation
		JOINT RightUpLeg
		{
			OFFSET -6.876100 -6.733299 0.301000
			CHANNELS 3 Zrotation Yrotation Xrotation
			JOINT RightLeg
			{
				OFFSET 0.347353 -34.795158 -4.515900
				CHANNELS 3 Zrotation Yrotation Xrotation
				End Site #name: RightFoot
				{
					OFFSET -0.347353 -34.589367 -6.070300
				}
			}
		}
	}
}
MOTION
Frames: 10
Frame Time: 0.041667
-52.411423 87.160812 17.184757 9.952559 64.677582 -21.026871 0.000000 -0.000000 0.000000 -0.194829 8.509629 -29.140672 -0.820935 -31.080720 -9.477850 0.000000 0.000000 0.000000 -7.768307 -14.202140 -5.071238 -76.309244 11.190884 -19.470882 -12.459966 -3.781620 -2.376116 -92.881735 -16.065568 3.204334 -165.271573 51.559720 -127.783555 179.209729 -27.178724 176.214710 -16.590681 -13.943256 9.580291 66.113314 -6.353193 -13.986552 46.511869 43.000678 -131.178403 -179.699578 18.773206 179.270407 -0.000000 -0.000000 0.000000 45.156879 -15.097052 29.576424 66.068520 20.193966 124.798965 -0.000000 0.000000 0.000000 90.407838 15.936584 4.392062 -23.646781 22.976765 -59.486674 
-53.632030 89.883850 17.817533 9.692225 64.981775 -21.242592 0.000000 -0.000000 0.000000 -0.185096 8.403506 -28.705655 -0.661621 -31.678844 -10.102956 0.000000 0.000000 0.000000 -7.893903 -14.482978 -5.271921 -76.523571 11.296718 -19.664159 -12.869396 -3.727337 -2.543793 -92.771376 -16.228637 3.309679 -165.220525 51.683245 -127.639102 179.245829 -27.008378 176.221601 -16.941658 -14.041002 9.996324 67.173920 -7.179669 -15.071410 47.061059 42.911910 -130.688492 -179.650920 19.347050 179.183045 -0.000000 -0.000000 0.000000 45.792816 -15.362023 29.445872 67.240931 19.898759 125.560638 -0.000000 0.000000 0.000000 90.093547 16.385201 3.888867 -23.470411 23.026062 -59.222200 
-54.906921 92.628777 18.478313 9.425815 65.496815 -21.440503 0.000000 -0.000000 0.000000 -0.140642 8.268589 -28.108247 -0.499615 -32.303825 -10.731997 0.000000 0.000000 0.000000 -7.995841 -14.806418 -5.524936 -76.670090 11.277918 -19.856391 -13.303331 -3.657715 -2.697887 -92.650891 -16.360332 3.375706 -165.258698 51.793426 -127.555654 179.267814 -26.798405 176.229806 -17.302493 -14.163757 10.438994 68.387851 -7.991702 -16.038015 47.547748 42.911327 -130.256798 -179.584647 19.843548 179.079559 -0.000000 -0.000000 0.000000 46.465847 -15.733643 29.088849 68.354748 19.532692 126.297273 -0.000000 0.000000 0.000000 89.851839 16.890247 3.236997 -23.246204 23.021406 -58.829014 
-56.238396 95.386391 19.160719 9.146045 66.204593 -21.594797 0.000000 -0.000000 0.000000 -0.087597 8.061822 -27.381503 -0.342845 -32.946449 -11.337153 0.000000 0.000000 0.000000 -8.083664 -15.175497 -5.833333 -76.749796 11.110658 -20.052754 -13.752961 -3.576122 -2.802563 -92.455228 -16.479875 3.380208 -165.327371 51.937512 -127.482530 179.280936 -26.570942 176.244783 -17.665196 -14.311794 10.896241 69.672665 -8.616789 -16.909200 47.985123 43.025313 -129.885426 -179.491052 20.265790 178.968607 -0.000000 -0.000000 0.000000 47.225254 -16.138710 28.373947 69.310659 19.162153 126.959559 -0.000000 0.000000 0.000000 89.694698 17.445638 2.435003 -22.962376 23.040564 -58.288807 
-57.625095 98.150215 19.856329 8.856670 67.073511 -21.711345 0.000000 -0.000000 0.000000 -0.071481 7.792113 -26.554698 -0.208653 -33.615704 -11.855522 0.000000 0.000000 0.000000 -8.168677 -15.585564 -6.186094 -76.768264 10.791758 -20.252964 -14.233824 -3.470052 -2.872971 -92.185005 -16.581807 3.339220 -165.493394 52.091463 -127.456878 179.278696 -26.303882 176.261307 -18.024024 -14.487769 11.341796 71.087008 -9.005080 -17.628497 48.347336 43.270163 -129.590967 -179.386101 20.574556 178.850096 -0.000000 -0.000000 0.000000 48.017073 -16.592103 27.544528 70.025728 18.792597 127.452155 -0.000000 -0.000000 0.000000 89.617268 18.270513 1.323877 -22.557085 23.066830 -57.546673 
-59.054108 100.919083 20.557394 8.569987 68.128026 -21.752496 0.000000 -0.000000 0.000000 -0.083555 7.506289 -25.707630 -0.134058 -34.247505 -12.414038 0.000000 0.000000 0.000000 -8.237022 -16.025258 -6.544011 -76.706962 10.352792 -20.500656 -14.726020 -3.361627 -2.921425 -91.840657 -16.658051 3.237474 -165.707759 52.249495 -127.410384 179.270037 -26.028556 176.283628 -18.389441 -14.681980 11.780034 72.565107 -9.187160 -18.218641 48.639178 43.632421 -129.376319 -179.280195 20.778268 178.719881 -0.000000 -0.000000 0.000000 48.806027 -17.080803 26.555343 70.456565 18.502106 127.834541 -0.000000 -0.000000 0.000000 89.473539 19.326373 -0.051573 -22.035533 23.158209 -56.714974 
-60.512562 103.699387 21.253723 8.268883 69.341330 -21.755613 0.000000 -0.000000 0.000000 -0.142507 7.192281 -24.939321 -0.069144 -34.881127 -12.928976 0.000000 0.000000 0.000000 -8.259321 -16.492947 -6.919028 -76.574213 9.810216 -20.788217 -15.207338 -3.223559 -2.938487 -91.388429 -16.700966 3.055182 -165.978305 52.405798 -127.378523 179.254744 -25.883867 176.306925 -18.725072 -14.854949 12.167696 74.042823 -9.212743 -18.683362 48.829436 44.147733 -129.250291 -179.156870 20.848725 178.598082 -0.000000 -0.000000 0.000000 49.547892 -17.735921 25.356286 70.557435 18.432714 127.967884 -0.000000 -0.000000 0.000000 89.309514 20.380191 -1.177559 -21.472324 23.236787 -56.138139 
-61.990231 106.482300 21.936432 8.006137 70.659588 -21.674920 0.000000 -0.000000 0.000000 -0.224303 6.884126 -24.172091 -0.039925 -35.443225 -13.288059 0.000000 0.000000 0.000000 -8.242844 -16.927305 -7.264849 -76.359617 9.226528 -21.230948 -15.650852 -3.085387 -2.909534 -90.837213 -16.684257 2.781074 -166.252068 52.571181 -127.339068 179.232102 -25.729635 176.344150 -19.031201 -14.994120 12.526885 75.468579 -9.083846 -18.991425 48.960217 44.752700 -129.213562 -179.023961 20.843183 178.476528 -0.000000 -0.000000 0.000000 50.265907 -18.393850 24.074389 70.288501 18.443321 127.947824 -0.000000 -0.000000 0.000000 89.170925 21.595237 -2.127731 -20.962791 23.270209 -55.935707 
-63.475777 109.269882 22.593264 7.784596 72.078121 -21.490722 0.000000 -0.000000 0.000000 -0.244987 6.656628 -23.610541 -0.015735 -35.920028 -13.476739 0.000000 0.000000 0.000000 -8.195665 -17.314972 -7.566500 -75.999616 8.546617 -21.700662 -16.010600 -2.942302 -2.816425 -90.167303 -16.628879 2.425940 -166.509274 52.700545 -127.270332 179.192977 -25.659845 176.387706 -19.251373 -15.086337 12.798993 76.829349 -8.791650 -19.130120 49.009105 45.370578 -129.287425 -178.888152 20.973408 178.342326 -0.000000 -0.000000 0.000000 50.805449 -19.023413 22.703615 69.756611 18.577097 127.685166 -0.000000 -0.000000 0.000000 89.172714 22.752295 -2.516990 -20.409935 23.321627 -56.086085 
-64.964882 112.065582 23.230333 7.661206 73.497131 -21.101320 0.000000 -0.000000 0.000000 -0.096892 6.552980 -23.348434 -0.000730 -36.310142 -13.513615 0.000000 0.000000 0.000000 -8.114163 -17.685495 -7.854476 -75.509978 7.759561 -22.206590 -16.293575 -2.806580 -2.629443 -89.397192 -16.536926 2.040949 -166.753185 52.791080 -127.139835 179.144764 -25.680802 176.426122 -19.411041 -15.142699 13.012929 78.066554 -8.403564 -19.156665 49.053047 45.891127 -129.436771 -178.776756 21.340263 178.188530 -0.000000 -0.000000 0.000000 51.136697 -19.615341 21.480113 69.015277 18.835759 127.178134 -0.000000 -0.000000 0.000000 89.225208 24.071024 -2.861325 -19.956545 23.391517 -56.287216 
